<svg id="Layer_1" data-name="Layer 1" xmlns="http://www.w3.org/2000/svg" viewBox="0 0 137 70"><defs><style>.cls-1{fill:#fff;}</style></defs><path class="cls-1" d="M92.73,3.87a1.16,1.16,0,0,1,.71,1,10.08,10.08,0,0,1-.59,5.69c-.29.72-.57,1.44-.82,2.17a.78.78,0,0,1-.66.57,60.91,60.91,0,0,0-8.3,2.25,38.45,38.45,0,0,0-10.38,5.31,11.5,11.5,0,0,0-3.2,3.39c-.17.31-.3.65-.46,1s0,.45.28.55a16.55,16.55,0,0,0,3.87.74,60.94,60.94,0,0,0,6.19.18A76.51,76.51,0,0,0,91.64,25.4c.49-.09,1-.16,1.48-.24.29-.05.42.08.4.35a22,22,0,0,1-.44,2.8c-.09.36-.46.58-.74.82a11.72,11.72,0,0,1-3.85,2.05.63.63,0,0,0-.5.71c0,.87-.07,1.75-.06,2.62a.74.74,0,0,1-.54.8,26.41,26.41,0,0,1-5.24,1.51,45.79,45.79,0,0,1-7.39.72c-1.93,0-3.84,0-5.76-.18a3.42,3.42,0,0,1-3-1.9,24.12,24.12,0,0,1-2.32-6.95,27.37,27.37,0,0,1-.41-4.7,13.27,13.27,0,0,1,.15-2.09,3.23,3.23,0,0,1,.7-1.59,25.25,25.25,0,0,1,7.33-5.91c.93-.51,1.89-1,2.94-1.44-1.85-.21-3.62,0-5.38-.22,0-.18.12-.19.21-.23A108,108,0,0,1,84.29,5.58,32.44,32.44,0,0,1,91,4a3,3,0,0,0,.85-.09Z"/><path class="cls-1" d="M11,28.73c.08-.83.15-1.65.23-2.48a56.35,56.35,0,0,1,2-10.37A58.38,58.38,0,0,1,16.15,8a1.41,1.41,0,0,1,.77-.75,28.91,28.91,0,0,1,8.24-2A36.28,36.28,0,0,1,29.93,5a35.93,35.93,0,0,1,5.86.49c.84.17.94.27,1.08,1.1a4.31,4.31,0,0,1-.37,2.8c-.44.83-.82,1.7-1.19,2.57a.7.7,0,0,1-.66.45,74.29,74.29,0,0,0-9.38,1.44,1.74,1.74,0,0,0-1.14.74c-1.12,1.61-2.27,3.2-3.29,4.89-.08.12-.25.26-.15.41s.27.05.41,0a46.06,46.06,0,0,1,5.12-.05,22.41,22.41,0,0,1,6.92,1.24c1.43.51,1.5.67,1,2.09-.17.55-.36,1.09-.5,1.65a.67.67,0,0,1-.6.55,51.74,51.74,0,0,0-11.3,3.43,36.78,36.78,0,0,0-3.89,2,.41.41,0,0,0-.2.6,3.07,3.07,0,0,0,2.09,1.95,9,9,0,0,0,4.09.24,23.27,23.27,0,0,0,7.38-2.37c.24-.12.45-.22.66.08a.37.37,0,0,1,0,.58,12.31,12.31,0,0,0-3.05,4.42.69.69,0,0,1-.42.4,38.4,38.4,0,0,1-8.33,2.42A6.4,6.4,0,0,1,14.94,38a6,6,0,0,1-1.37-1.75c-.13-.25-.26-.31-.41-.05-.34.6-.88.56-1.43.51-.31,0-.42-.25-.52-.5s-.1-.77-.21-1.14Z"/><path class="cls-1" d="M107.92,39.25a8.12,8.12,0,0,1-3.73-1,19,19,0,0,1-6.72-5.11,8.49,8.49,0,0,1-1.79-6.91,36.29,36.29,0,0,1,2.67-8.37c.48-1.14,1-2.25,1.52-3.37.18-.4.15-.45-.29-.5-.76-.1-1.51-.2-2.27-.27-.35,0-.45-.14-.27-.49q1.3-2.55,2.56-5.11a.71.71,0,0,1,.64-.43c.67-.06,1.34-.14,2-.18a.59.59,0,0,0,.56-.37c.28-.54.59-1.05.85-1.59a.73.73,0,0,1,.79-.45c1.55.1,3.12.14,4.67.27a39.75,39.75,0,0,1,6.25.92A12.62,12.62,0,0,1,119.55,8a7.81,7.81,0,0,1,3.33,5.45,20.09,20.09,0,0,1-.8,9.17,33.91,33.91,0,0,1-7.2,12.83,11.53,11.53,0,0,1-4.5,3.31A6.27,6.27,0,0,1,107.92,39.25ZM104.09,31c0,.37.1,1,.1,1.65,0,.35.14.37.42.29A16.12,16.12,0,0,0,108,31.54a24.61,24.61,0,0,0,5.92-4.73A17.28,17.28,0,0,0,117,22.39a2.65,2.65,0,0,0-.4-3.11,7.36,7.36,0,0,0-2.2-1.68,22.09,22.09,0,0,0-6.19-2.05c-.4-.09-.58,0-.72.41-.86,2.55-1.68,5.11-2.33,7.73A29.59,29.59,0,0,0,104.09,31Z"/><path class="cls-1" d="M52,32.15c-1.56-.32-3-.62-4.49-1a29.67,29.67,0,0,1-5.92-2.06,7.67,7.67,0,0,1-3.46-3.18,8.12,8.12,0,0,1-.9-4.54c.27-3.9,2.38-6.8,5.18-9.29a30,30,0,0,1,10.26-6,16,16,0,0,1,4.69-1,1.23,1.23,0,0,1,1.4,1c.14.44.24.89.41,1.31a5.16,5.16,0,0,0,3.1,3c.43.17.55.35.47.82-.47,2.51-.89,5-1.33,7.53a1,1,0,0,1-1.17.53c-.12-.08-.13-.22-.16-.34-.25-1.16-.52-2.32-.76-3.49-.06-.34-.19-.41-.52-.34a25.34,25.34,0,0,0-10.66,5,6.72,6.72,0,0,0-1.72,2A1.74,1.74,0,0,0,47,24.56a10,10,0,0,0,2.37,1.2c2.49,1,5.07,1.74,7.62,2.58a3.94,3.94,0,0,1,2.42,2,10.69,10.69,0,0,1,1.11,2.84,2.34,2.34,0,0,1-.67,2.2,6.89,6.89,0,0,1-2,1.35,63.47,63.47,0,0,1-7.65,3,24.69,24.69,0,0,1-3.57.94,6.35,6.35,0,0,1-3.26-.38,15.17,15.17,0,0,1-4.56-2.79c-.19-.17-.26-.33-.1-.55s.18-.54.58-.42a7,7,0,0,0,4.19-.18,35,35,0,0,0,8.34-4.06S51.88,32.25,52,32.15Z"/><path class="cls-1" d="M11.63,44.36h.73v4.79h4.18v.59H11.63Z"/><path class="cls-1" d="M17.34,44.36h.73v5.38h-.73Z"/><path class="cls-1" d="M19.52,44.36h5.13V45h-4.4v1.72h4.23v.6H20.25v2.47h-.73Z"/><path class="cls-1" d="M25.76,44.36H31V45H26.49v1.72h4.38v.6H26.49v1.88h4.58v.59H25.76Z"/><path class="cls-1" d="M32.05,48.05h.68v.38c0,.52.29.78,1.19.78h2.26c1.06,0,1.37-.23,1.37-1s-.27-.85-1.17-.85H35c-2.22,0-3-.13-3-1.56,0-1.23.73-1.5,2.23-1.5h1.57c1.81,0,2.26.46,2.26,1.42v.18h-.68c0-.85-.11-1-2-1h-.77c-1.41,0-1.9.08-1.9,1,0,.64.2.86,1.33.86h2.16c1.42,0,2,.41,2,1.32v.35c0,1.32-1.09,1.42-2.17,1.42h-2c-1.06,0-2-.19-2-1.36Z"/><path class="cls-1" d="M39.38,46.31c0-1.36.46-2,1.92-2h2.79c1.32,0,1.69.62,1.69,1.34v.46h-.64v-.25c0-.91-.57-1-1.24-1H41.37c-.69,0-1.26.21-1.26,1.15v2c0,.94.57,1.15,1.26,1.15h2.55c1,0,1.27-.21,1.27-.94v-.34h.68v.37c0,1-.31,1.5-1.82,1.5H41.3c-1.46,0-1.92-.65-1.92-2Z"/><path class="cls-1" d="M47.07,44.36h.73v5.38h-.73Z"/><path class="cls-1" d="M49.25,44.36h5.29V45H50v1.72h4.38v.6H50v1.88h4.59v.59H49.25Z"/><path class="cls-1" d="M55.63,44.36h1.09l4.93,4.73V44.36h.72v5.38H61.29L56.36,45v4.73h-.73Z"/><path class="cls-1" d="M63.62,46.31c0-1.36.46-2,1.92-2h2.78c1.33,0,1.69.62,1.69,1.34v.46h-.64v-.25c0-.91-.56-1-1.23-1H65.61c-.7,0-1.26.21-1.26,1.15v2c0,.94.56,1.15,1.26,1.15h2.55c1,0,1.26-.21,1.26-.94v-.34h.69v.37c0,1-.31,1.5-1.82,1.5H65.54c-1.46,0-1.92-.65-1.92-2Z"/><path class="cls-1" d="M71.29,44.36h5.28V45H72v1.72h4.38v.6H72v1.88H76.6v.59H71.29Z"/><path class="cls-1" d="M77.58,48.05h.68v.38c0,.52.28.78,1.19.78h2.26c1.06,0,1.37-.23,1.37-1s-.27-.85-1.18-.85H80.52c-2.22,0-3-.13-3-1.56,0-1.23.73-1.5,2.23-1.5h1.57c1.81,0,2.26.46,2.26,1.42v.18H83c0-.85-.11-1-2-1h-.77c-1.41,0-1.91.08-1.91,1,0,.64.2.86,1.34.86h2.16c1.42,0,2,.41,2,1.32v.35c0,1.32-1.08,1.42-2.16,1.42h-2c-1.07,0-2-.19-2-1.36Z"/><path class="cls-1" d="M95.24,47.82c0,1.46-.48,2-1.82,2h-3c-1.46,0-1.92-.65-1.92-2V46.31c0-1.36.46-2,1.92-2h2.75c1,0,2,.24,2,1.48V46h-.68c0-1-.31-1.08-2.1-1.08H90.49c-.7,0-1.27.21-1.27,1.15v2c0,.94.57,1.15,1.27,1.15h2.84c.73,0,1.18-.26,1.18-1v-.54H91.75v-.6h3.49Z"/><path class="cls-1" d="M96.48,44.36h4.31c1.55,0,1.8.51,1.8,1.52v.44c0,.76-.44,1-1,1h0c.74.14.92.53.92,1v1.37h-.69V48.56c0-.84-.4-1-1.07-1H97.21v2.13h-.73ZM100.7,47c.82,0,1.16-.22,1.16-.78v-.49c0-.6-.26-.8-1.33-.8H97.21V47Z"/><path class="cls-1" d="M103.72,46.31c0-1.36.47-2,1.92-2h3.1c1.46,0,1.92.65,1.92,2v1.48c0,1.36-.46,2-1.92,2h-3.1c-1.45,0-1.92-.65-1.92-2Zm6.21-.27c0-.94-.56-1.15-1.26-1.15h-3c-.7,0-1.27.21-1.27,1.15v2c0,.94.57,1.15,1.27,1.15h3c.7,0,1.26-.21,1.26-1.15Z"/><path class="cls-1" d="M112,44.36h.73v4c0,.52.18.83,1.17.83h2.52c1,0,1.17-.31,1.17-.83v-4h.73v4c0,1.09-.55,1.41-1.92,1.41h-2.48c-1.37,0-1.92-.32-1.92-1.41Z"/><path class="cls-1" d="M119.7,44.36h4.43c1,0,1.54.21,1.54,1.46s-.1,1.8-1.68,1.8h-3.56v2.12h-.73Zm5.24,1.39c0-.64-.35-.8-1-.8h-3.53V47H124c.58,0,.92-.21.92-.77Z"/><path class="cls-1" d="M124.41,36.1a1.59,1.59,0,1,1-1.6,1.59A1.59,1.59,0,0,1,124.41,36.1Zm0,2.88a1.29,1.29,0,1,0-1.3-1.29A1.29,1.29,0,0,0,124.41,39Zm-.62-2.19h.67c.45,0,.68.15.68.53s-.2.45-.48.48l.5.79h-.35l-.45-.77h-.26v.77h-.31Zm.67.78c.21,0,.38,0,.38-.28s-.2-.25-.38-.25h-.36v.53Z"/><path class="cls-1" d="M1.84,57.9h.91L1.4,64.15H.5Z"/><path class="cls-1" d="M3.8,60.1c0-.16.06-.32.09-.52h.79l-.11.63h0A1.69,1.69,0,0,1,6,59.48a1.17,1.17,0,0,1,1.21.79,2,2,0,0,1,1.62-.79,1.18,1.18,0,0,1,1.27,1.19,4.9,4.9,0,0,1-.13.95l-.53,2.53H8.64l.61-2.89a3,3,0,0,0,.05-.43.63.63,0,0,0-.67-.67c-.85,0-1.33,1-1.48,1.7l-.51,2.29H5.8l.61-2.89a3,3,0,0,0,0-.43.63.63,0,0,0-.67-.67c-.85,0-1.32,1-1.48,1.7L3.8,64.15H3Z"/><path class="cls-1" d="M11.51,61.1c.09-.51.18-1,.25-1.52h.78l-.15.7h0a1.8,1.8,0,0,1,1.62-.8,1.59,1.59,0,0,1,1.63,1.73c0,1.68-.78,3.05-2.3,3.05a1.42,1.42,0,0,1-1.49-.79h0L11.31,66h-.84Zm1.73,2.47c1,0,1.52-1.15,1.52-2.29a1,1,0,0,0-1-1.12c-1,0-1.64,1.09-1.64,2.22A1.11,1.11,0,0,0,13.24,63.57Z"/><path class="cls-1" d="M17.19,60.28c0-.19.09-.43.13-.7h.78l-.14.73h0a1.76,1.76,0,0,1,1.56-.83,1,1,0,0,1,.38.08l-.19.74a1.22,1.22,0,0,0-.36-.09c-1,0-1.54,1.13-1.66,1.69l-.47,2.25h-.85Z"/><path class="cls-1" d="M22.59,59.48a1.86,1.86,0,0,1,2,2,2.53,2.53,0,0,1-2.55,2.79,1.88,1.88,0,0,1-2.08-2A2.54,2.54,0,0,1,22.59,59.48Zm-.54,4.09c.95,0,1.67-1.07,1.67-2.1a1.2,1.2,0,0,0-1.17-1.31c-1.11,0-1.67,1.18-1.67,2.13A1.14,1.14,0,0,0,22.05,63.57Z"/><path class="cls-1" d="M25.65,59.58h.9L27,63.27h0l2-3.69H30l-2.61,4.57h-1Z"/><path class="cls-1" d="M30.85,59.58h.84l-1,4.57h-.84Zm1.11-1H31l.19-1h.95Z"/><path class="cls-1" d="M33.11,60.28c0-.19.09-.43.13-.7H34l-.14.73h0a1.76,1.76,0,0,1,1.56-.83A1.35,1.35,0,0,1,37,60.91a4.6,4.6,0,0,1-.11.83l-.5,2.41h-.84l.56-2.73a2.58,2.58,0,0,0,0-.43.79.79,0,0,0-.84-.83c-1,0-1.54,1.12-1.66,1.69l-.48,2.3h-.84Z"/><path class="cls-1" d="M42.71,59.58l-1.05,4.9a2.29,2.29,0,0,1-2.45,1.65,4.06,4.06,0,0,1-1.53-.33l.19-.75a3.22,3.22,0,0,0,1.46.4,1.56,1.56,0,0,0,1.59-1.33l.12-.49h0a1.56,1.56,0,0,1-1.36.52A1.74,1.74,0,0,1,38,62.32c0-1.68,1-2.86,2.3-2.84a1.52,1.52,0,0,1,1.49.91h0l.16-.81Zm-2.84,3.89c.74,0,1.57-.58,1.57-2.07a1.13,1.13,0,0,0-1.14-1.24c-1,0-1.45,1.24-1.45,2.12A1.06,1.06,0,0,0,39.87,63.47Z"/><path class="cls-1" d="M47.13,57.9H48l-1.18,5.46h2.59l-.16.79H45.77Z"/><path class="cls-1" d="M51.24,59.58h.85l-1,4.57h-.84Zm1.12-1h-1l.2-1h1Z"/><path class="cls-1" d="M53,59.58h.89l.47,3.69h0l2-3.69h.89l-2.6,4.57h-1Z"/><path class="cls-1" d="M60.75,64.07a6.1,6.1,0,0,1-1.35.19,1.85,1.85,0,0,1-2.1-2.06,2.6,2.6,0,0,1,2.5-2.72,1.58,1.58,0,0,1,1.71,1.74,4.25,4.25,0,0,1-.08.83H58.22a1.43,1.43,0,0,0,0,.29c0,1,.59,1.23,1.41,1.23a3.47,3.47,0,0,0,1.29-.27Zm-.1-2.64c0-.14,0-.24,0-.35a.87.87,0,0,0-1-.92,1.58,1.58,0,0,0-1.4,1.27Z"/><path class="cls-1" d="M65.09,60.39a2.23,2.23,0,0,0-.92-.23c-.36,0-.85.09-.85.55,0,.78,1.56.82,1.56,2.09a1.55,1.55,0,0,1-1.73,1.46A3.26,3.26,0,0,1,61.82,64l.16-.72a2.89,2.89,0,0,0,1.05.25c.46,0,1-.18,1-.7,0-.78-1.56-.9-1.56-2,0-1,1-1.34,1.72-1.34a3.1,3.1,0,0,1,1.19.25Z"/><path class="cls-1" d="M68.49,59.58h1l.23-1,.9-.32-.29,1.37h1.26l-.14.68H70.21l-.42,2a6,6,0,0,0-.13.86c0,.32.17.49.6.49a1.67,1.67,0,0,0,.59-.11l-.12.7a3,3,0,0,1-.82.1,1,1,0,0,1-1.1-1A7.05,7.05,0,0,1,69,62.17l.4-1.91h-1Z"/><path class="cls-1" d="M73,57.44h.84l-.56,2.72h0a1.69,1.69,0,0,1,1.44-.68,1.35,1.35,0,0,1,1.52,1.43,4.6,4.6,0,0,1-.11.83l-.5,2.41h-.84l.56-2.73a2.58,2.58,0,0,0,0-.43.79.79,0,0,0-.84-.83c-1,0-1.54,1.12-1.66,1.69l-.48,2.3h-.84Z"/><path class="cls-1" d="M77.89,60.28c0-.19.09-.43.13-.7h.79l-.15.73h0a1.76,1.76,0,0,1,1.56-.83,1,1,0,0,1,.38.08l-.19.74a1.25,1.25,0,0,0-.35-.09c-1,0-1.55,1.13-1.67,1.69l-.47,2.25H77.1Z"/><path class="cls-1" d="M83.29,59.48a1.86,1.86,0,0,1,2,2,2.53,2.53,0,0,1-2.55,2.79,1.88,1.88,0,0,1-2.07-2A2.53,2.53,0,0,1,83.29,59.48Zm-.54,4.09c1,0,1.67-1.07,1.67-2.1a1.19,1.19,0,0,0-1.16-1.31c-1.12,0-1.68,1.18-1.68,2.13A1.14,1.14,0,0,0,82.75,63.57Z"/><path class="cls-1" d="M90.17,63.45c0,.19-.09.43-.13.7h-.78l.14-.73h0a1.76,1.76,0,0,1-1.56.84,1.36,1.36,0,0,1-1.52-1.44,4.6,4.6,0,0,1,.11-.83l.5-2.41h.84l-.56,2.73a2.7,2.7,0,0,0,0,.43.79.79,0,0,0,.84.83c1,0,1.54-1.12,1.66-1.69l.48-2.3H91Z"/><path class="cls-1" d="M96.44,59.58l-1,4.9A2.29,2.29,0,0,1,93,66.13a4.14,4.14,0,0,1-1.54-.33l.19-.75a3.26,3.26,0,0,0,1.46.4,1.55,1.55,0,0,0,1.59-1.33l.12-.49h0a1.54,1.54,0,0,1-1.36.52,1.74,1.74,0,0,1-1.7-1.83c0-1.68,1-2.86,2.3-2.84a1.52,1.52,0,0,1,1.5.91h0l.17-.81Zm-2.83,3.89c.73,0,1.56-.58,1.56-2.07A1.13,1.13,0,0,0,94,60.16c-1,0-1.45,1.24-1.45,2.12A1.06,1.06,0,0,0,93.61,63.47Z"/><path class="cls-1" d="M98.4,57.44h.84l-.56,2.72h0a1.71,1.71,0,0,1,1.44-.68,1.36,1.36,0,0,1,1.53,1.43,4.6,4.6,0,0,1-.11.83l-.5,2.41h-.84l.56-2.73a2.58,2.58,0,0,0,0-.43.79.79,0,0,0-.84-.83c-1,0-1.55,1.12-1.66,1.69l-.49,2.3H97Z"/><path class="cls-1" d="M108.94,58.89a2.16,2.16,0,0,0-1.14-.31c-.59,0-1.23.23-1.23,1,0,1,2.13,1,2.13,2.69a2,2,0,0,1-2.16,2,4.59,4.59,0,0,1-1.75-.36l.29-.83a2.58,2.58,0,0,0,1.31.4c1,0,1.36-.59,1.36-1.11,0-1.27-2.13-1-2.13-2.79a1.9,1.9,0,0,1,2.06-1.78,3.91,3.91,0,0,1,1.51.3Z"/><path class="cls-1" d="M113,60.38a1.71,1.71,0,0,0-.81-.22,1.87,1.87,0,0,0-1.76,2.06c0,.85.43,1.35,1.24,1.35a2.67,2.67,0,0,0,.92-.2l-.15.78a3.22,3.22,0,0,1-.88.11,1.8,1.8,0,0,1-2-1.91A2.59,2.59,0,0,1,112,59.48a3.41,3.41,0,0,1,1.18.18Z"/><path class="cls-1" d="M114.43,59.58h.84l-1,4.57h-.84Zm1.12-1h-1l.19-1h.95Z"/><path class="cls-1" d="M119.46,64.07a6.19,6.19,0,0,1-1.35.19A1.86,1.86,0,0,1,116,62.2a2.61,2.61,0,0,1,2.5-2.72,1.58,1.58,0,0,1,1.72,1.74,5.19,5.19,0,0,1-.08.83h-3.21a1.43,1.43,0,0,0,0,.29c0,1,.59,1.23,1.4,1.23a3.47,3.47,0,0,0,1.29-.27Zm-.11-2.64a2.36,2.36,0,0,0,0-.35.87.87,0,0,0-1-.92A1.56,1.56,0,0,0,117,61.43Z"/><path class="cls-1" d="M121.67,60.28c0-.19.09-.43.13-.7h.78l-.14.73h0a1.76,1.76,0,0,1,1.56-.83,1.35,1.35,0,0,1,1.52,1.43,4.6,4.6,0,0,1-.11.83l-.5,2.41h-.84l.56-2.73a2.58,2.58,0,0,0,0-.43.79.79,0,0,0-.84-.83c-1,0-1.54,1.12-1.66,1.69l-.48,2.3h-.84Z"/><path class="cls-1" d="M129.92,60.38a1.74,1.74,0,0,0-.82-.22,1.87,1.87,0,0,0-1.75,2.06c0,.85.43,1.35,1.23,1.35a2.72,2.72,0,0,0,.93-.2l-.16.78a3.15,3.15,0,0,1-.87.11,1.81,1.81,0,0,1-2-1.91,2.59,2.59,0,0,1,2.49-2.87,3.37,3.37,0,0,1,1.18.18Z"/><path class="cls-1" d="M133.88,64.07a6,6,0,0,1-1.35.19,1.85,1.85,0,0,1-2.1-2.06,2.61,2.61,0,0,1,2.5-2.72,1.58,1.58,0,0,1,1.71,1.74,4.25,4.25,0,0,1-.08.83h-3.21a1.43,1.43,0,0,0,0,.29c0,1,.6,1.23,1.41,1.23A3.47,3.47,0,0,0,134,63.3Zm-.1-2.64c0-.14,0-.24,0-.35a.87.87,0,0,0-1-.92,1.58,1.58,0,0,0-1.4,1.27Z"/><path class="cls-1" d="M135.5,63.15h1l-.21,1h-1Z"/></svg>