<?xml version="1.0" encoding="UTF-8"?>
<svg xmlns="http://www.w3.org/2000/svg" xmlns:xlink="http://www.w3.org/1999/xlink" width="40px" height="18px" viewBox="0 0 40 18" version="1.1">
<g id="surface1">
<path style=" stroke:none;fill-rule:nonzero;fill:rgb(6.27451%,9.019608%,15.294118%);fill-opacity:1;" d="M 10 5.398438 C 11.417969 7.070312 11.21875 8.898438 11.183594 10.980469 C 11.183594 11.484375 11.183594 11.484375 11.1875 12.003906 C 11.171875 14.132812 11.058594 15.6875 9.6875 17.390625 C 7.96875 18.328125 6.203125 18.179688 4.285156 18 C 3.929688 17.640625 3.929688 17.640625 3.882812 16.738281 C 3.929688 15.839844 3.929688 15.839844 4.285156 15.480469 C 4.824219 15.339844 5.371094 15.214844 5.914062 15.097656 C 6.210938 15.035156 6.503906 14.96875 6.808594 14.90625 C 7.039062 14.855469 7.265625 14.808594 7.5 14.761719 C 7.511719 13.628906 7.515625 12.496094 7.523438 11.363281 C 7.523438 11.039062 7.527344 10.714844 7.53125 10.382812 C 7.53125 10.074219 7.535156 9.769531 7.535156 9.453125 C 7.535156 9.167969 7.539062 8.882812 7.539062 8.589844 C 7.574219 7.914062 7.574219 7.914062 7.144531 7.558594 C 6.539062 7.535156 5.9375 7.53125 5.335938 7.539062 C 5.007812 7.539062 4.679688 7.542969 4.339844 7.546875 C 4.085938 7.550781 3.832031 7.554688 3.570312 7.558594 C 3.558594 8.011719 3.542969 8.464844 3.527344 8.933594 C 3.519531 9.1875 3.511719 9.441406 3.5 9.703125 C 3.523438 10.554688 3.523438 10.554688 4.285156 11.519531 C 4.980469 11.878906 4.980469 11.878906 5.757812 12.128906 C 6.019531 12.21875 6.277344 12.308594 6.542969 12.402344 C 6.742188 12.46875 6.9375 12.53125 7.144531 12.601562 C 7.144531 13.3125 7.144531 14.027344 7.144531 14.761719 C 5.085938 14.882812 3.558594 14.882812 1.785156 13.679688 C 0.0390625 11.726562 -0.128906 10.476562 -0.0976562 7.894531 C 0 6.839844 0 6.839844 0.558594 5.714844 C 3.214844 3.652344 7.183594 3.71875 10 5.398438 Z M 10 5.398438 "/>
<path style=" stroke:none;fill-rule:nonzero;fill:rgb(6.27451%,9.019608%,15.294118%);fill-opacity:1;" d="M 28.570312 4.679688 C 28.570312 5.511719 28.570312 6.34375 28.570312 7.199219 C 27.628906 7.199219 26.6875 7.199219 25.714844 7.199219 C 25.714844 7.4375 25.714844 7.675781 25.714844 7.921875 C 25.957031 7.949219 26.199219 7.980469 26.449219 8.011719 C 27.828125 8.363281 28.796875 8.949219 30 9.71875 C 30.632812 10.996094 30.367188 12.335938 30 13.679688 C 28.914062 14.925781 28.328125 15.082031 26.695312 15.214844 C 25.523438 15.230469 24.378906 15.222656 23.214844 15.121094 C 22.855469 14.761719 22.855469 14.761719 22.8125 13.679688 C 22.855469 12.601562 22.855469 12.601562 23.214844 12.238281 C 23.875 12.214844 24.539062 12.210938 25.199219 12.21875 C 25.5625 12.222656 25.921875 12.222656 26.296875 12.226562 C 26.714844 12.234375 26.714844 12.234375 27.144531 12.238281 C 26.542969 11.03125 25.234375 10.742188 24.054688 10.195312 C 23.214844 9.71875 23.214844 9.71875 22.5 8.640625 C 22.527344 7.207031 22.652344 6.386719 23.527344 5.242188 C 25.183594 4.40625 26.753906 4.5625 28.570312 4.679688 Z M 28.570312 4.679688 "/>
<path style=" stroke:none;fill-rule:nonzero;fill:rgb(6.27451%,9.019608%,15.294118%);fill-opacity:1;" d="M 16.429688 1.800781 C 17.371094 1.800781 18.3125 1.800781 19.285156 1.800781 C 19.285156 2.632812 19.285156 3.464844 19.285156 4.320312 C 19.894531 4.308594 19.894531 4.308594 20.511719 4.296875 C 21.785156 4.320312 21.785156 4.320312 22.144531 4.679688 C 22.15625 5.519531 22.15625 6.359375 22.144531 7.199219 C 21.199219 7.199219 20.257812 7.199219 19.285156 7.199219 C 19.402344 8.863281 19.519531 10.527344 19.644531 12.238281 C 20.46875 12.238281 21.292969 12.238281 22.144531 12.238281 C 22.144531 13.191406 22.144531 14.140625 22.144531 15.121094 C 18.648438 15.328125 18.648438 15.328125 17.144531 14.039062 C 16.292969 12.757812 16.347656 11.609375 16.359375 10.097656 C 16.359375 9.859375 16.359375 9.621094 16.363281 9.375 C 16.367188 8.621094 16.375 7.867188 16.382812 7.109375 C 16.386719 6.597656 16.390625 6.082031 16.394531 5.570312 C 16.402344 4.3125 16.414062 3.054688 16.429688 1.800781 Z M 16.429688 1.800781 "/>
<path style=" stroke:none;fill-rule:nonzero;fill:rgb(6.27451%,9.019608%,15.294118%);fill-opacity:1;" d="M 12.144531 4.679688 C 14.339844 4.644531 14.339844 4.644531 15 4.679688 C 15.644531 5.328125 15.402344 6.316406 15.40625 7.1875 C 15.40625 7.84375 15.40625 7.84375 15.40625 8.507812 C 15.40625 8.96875 15.402344 9.425781 15.402344 9.898438 C 15.402344 10.359375 15.40625 10.816406 15.40625 11.289062 C 15.40625 11.726562 15.40625 12.164062 15.40625 12.609375 C 15.402344 13.015625 15.402344 13.417969 15.402344 13.832031 C 15.355469 14.761719 15.355469 14.761719 15 15.121094 C 13.75 15.164062 13.75 15.164062 12.5 15.121094 C 12.144531 14.761719 12.144531 14.761719 12.101562 13.792969 C 12.105469 13.375 12.105469 12.953125 12.109375 12.519531 C 12.109375 12.066406 12.109375 11.613281 12.113281 11.144531 C 12.113281 10.664062 12.117188 10.179688 12.121094 9.699219 C 12.121094 9.214844 12.125 8.730469 12.125 8.246094 C 12.128906 7.058594 12.136719 5.867188 12.144531 4.679688 Z M 12.144531 4.679688 "/>
<path style=" stroke:none;fill-rule:nonzero;fill:rgb(6.27451%,9.411765%,15.686275%);fill-opacity:1;" d="M 38.570312 0 C 39.042969 0 39.515625 0 40 0 C 40 2.496094 40 4.988281 40 7.558594 C 36.367188 7.734375 36.367188 7.734375 35.113281 6.996094 C 34.449219 5.753906 34.425781 4.992188 34.644531 3.601562 C 35.425781 2.542969 35.425781 2.542969 36.429688 1.800781 C 37.433594 1.6875 37.433594 1.6875 38.214844 1.800781 C 38.332031 1.207031 38.449219 0.613281 38.570312 0 Z M 36.785156 3.601562 C 36.667969 4.195312 36.550781 4.789062 36.429688 5.398438 C 36.957031 5.757812 36.957031 5.757812 37.5 6.121094 C 37.855469 5.882812 38.207031 5.644531 38.570312 5.398438 C 38.453125 4.804688 38.335938 4.210938 38.214844 3.601562 C 37.742188 3.601562 37.269531 3.601562 36.785156 3.601562 Z M 36.785156 3.601562 "/>
<path style=" stroke:none;fill-rule:nonzero;fill:rgb(6.27451%,9.019608%,15.294118%);fill-opacity:1;" d="M 32.5 1.800781 C 32.972656 1.800781 33.441406 1.800781 33.929688 1.800781 C 33.929688 3.699219 33.929688 5.601562 33.929688 7.558594 C 33.457031 7.558594 32.984375 7.558594 32.5 7.558594 C 32.5 5.660156 32.5 3.757812 32.5 1.800781 Z M 32.5 1.800781 "/>
<path style=" stroke:none;fill-rule:nonzero;fill:rgb(15.294118%,62.352943%,96.078432%);fill-opacity:1;" d="M 12.855469 1.078125 C 13.972656 1.214844 13.972656 1.214844 15 1.441406 C 15.246094 2.273438 15.246094 2.273438 15.355469 3.238281 C 14.957031 3.914062 14.957031 3.914062 14.285156 4.320312 C 13.324219 4.207031 13.324219 4.207031 12.5 3.960938 C 12.277344 2.925781 12.277344 2.925781 12.144531 1.800781 C 12.378906 1.5625 12.613281 1.324219 12.855469 1.078125 Z M 12.855469 1.078125 "/>
<path style=" stroke:none;fill-rule:nonzero;fill:rgb(15.294118%,62.352943%,96.078432%);fill-opacity:1;" d="M 29.644531 4.679688 C 30.757812 4.613281 30.757812 4.613281 31.785156 4.679688 C 32.007812 5.714844 32.007812 5.714844 32.144531 6.839844 C 31.429688 7.558594 31.429688 7.558594 30.492188 7.605469 C 30.210938 7.589844 29.929688 7.574219 29.644531 7.558594 C 29.242188 6.726562 29.242188 6.726562 28.929688 5.761719 C 29.164062 5.402344 29.398438 5.046875 29.644531 4.679688 Z M 29.644531 4.679688 "/>
<path style=" stroke:none;fill-rule:nonzero;fill:rgb(6.27451%,9.019608%,15.294118%);fill-opacity:1;" d="M 32.5 0 C 32.972656 0 33.441406 0 33.929688 0 C 33.8125 0.476562 33.691406 0.949219 33.570312 1.441406 C 33.21875 1.320312 32.863281 1.203125 32.5 1.078125 C 32.5 0.722656 32.5 0.367188 32.5 0 Z M 32.5 0 "/>
<path style=" stroke:none;fill-rule:nonzero;fill:rgb(6.27451%,9.019608%,14.901961%);fill-opacity:1;" d="M 6.429688 9.359375 C 6.664062 9.480469 6.898438 9.597656 7.144531 9.71875 C 7.144531 10.078125 7.144531 10.433594 7.144531 10.800781 C 6.789062 10.679688 6.4375 10.5625 6.070312 10.441406 C 6.1875 10.082031 6.308594 9.726562 6.429688 9.359375 Z M 6.429688 9.359375 "/>
</g>
</svg>
